<mxfile host="app.diagrams.net" modified="2024-05-26T23:18:56.367Z" agent="Mozilla/5.0 (Windows NT 10.0; Win64; x64) AppleWebKit/537.36 (KHTML, like Gecko) Chrome/125.0.0.0 Safari/537.36" version="24.4.8" etag="mdxfjOXGkxHRrg3Cily4" type="github">
  <diagram name="Page-1" id="MA1Wojl_glpz5BlAFP_E">
    <mxGraphModel>
      <root>
        <mxCell id="0" />
        <mxCell id="1" parent="0" />
      </root>
    </mxGraphModel>
  </diagram>
</mxfile>
